# xmcd
#
# Track frame offsets:
#	150
#	21676
#	50042
#	68921
#	89928
#	112242
#	132218
#	153084
#	169561
#	183702
#	195489
#	213528
#	232065
#	248170
#	266202
#
# Disc length: 3706 seconds
#
# Revision: 1
# Processed by: cddbd v1.5.2PL0 Copyright (c) Steve Scherf et al.
# Submitted via: audiograbber 1.83.01
#
DISCID=ec0e780f
DTITLE=Sunfly in demand - SFID005
DYEAR=2008
DGENRE=Karaoke
TTITLE0=Kiss - I was made for lovin' you
TTITLE1=underworld - underneath the radar
TTITLE2=INXS - Kiss the dirt (falling down from the mountain)
TTITLE3=Silverchair - Anthem for the year 2000
TTITLE4=Powderfinger - My Happiness
TTITLE5=Midnight Oil - Us Forces
TTITLE6=Billy Idol - Mony Mony
TTITLE7=Simply Red - If you don't know me by now
TTITLE8=gene pitney - The man who shot liberty valance
TTITLE9=Gene Chandler - Duke of earl
TTITLE10=Bette midlet - Beast of Burden
TTITLE11=Travelling Wilburys - Last Night
TTITLE12=B J Thomas - (hey won't you play) Another somebody done somebody wrong
TTITLE12=song
TTITLE13=Fleetwood mac - Dreams
TTITLE14=Willie Nelson - Blue eyes crying in the rain
EXTD=
EXTT0=
EXTT1=
EXTT2=
EXTT3=
EXTT4=
EXTT5=
EXTT6=
EXTT7=
EXTT8=
EXTT9=
EXTT10=
EXTT11=
EXTT12=
EXTT13=
EXTT14=
PLAYORDER=
